<?xml version="1.0" encoding="UTF-8"?>
<svg width="269px" height="75px" viewBox="0 0 269 57" version="1.1" xmlns="http://www.w3.org/2000/svg">
    <g stroke="none" stroke-width="1" fill="none" fill-rule="evenodd">
        <g transform="translate(2.000000, 0)">
            <g class="text" opacity="0.4" transform="translate(70.166016, 0.000000)" fill="#000000" fill-rule="nonzero">
                <path d="M11.2207031,2.02148438 C10.9602865,2.05403646 10.7389323,2.08658854 10.5566406,2.11914062 C10.374349,2.15169271 10.1692708,2.19726562 9.94140625,2.25585938 C9.67447917,2.32747396 9.50358073,2.45442708 9.42871094,2.63671875 C9.35384115,2.81901042 9.31640625,3.02734375 9.31640625,3.26171875 L9.31640625,10.8984375 C9.31640625,11.6015625 9.17480469,12.2460938 8.89160156,12.8320312 C8.60839844,13.4179688 8.21940104,13.9095052 7.72460938,14.3066406 C7.22330729,14.6972656 6.66341146,14.991862 6.04492188,15.1904297 C5.42643229,15.3889974 4.765625,15.4882812 4.0625,15.4882812 C2.84505208,15.4882812 1.86360677,15.1953125 1.11816406,14.609375 C0.372721354,14.0234375 0,13.219401 0,12.1972656 C0,11.5917969 0.170898438,11.0904948 0.512695312,10.6933594 C0.854492188,10.296224 1.32486979,10.0976562 1.92382812,10.0976562 C2.49023438,10.0976562 2.94108073,10.2636719 3.27636719,10.5957031 C3.61165365,10.9277344 3.77929688,11.3378906 3.77929688,11.8261719 C3.77929688,12.2428385 3.6344401,12.6285807 3.34472656,12.9833984 C3.05501302,13.3382161 2.72460938,13.6653646 2.35351562,13.9648438 L2.35351562,14.0917969 C2.41210938,14.2220052 2.5390625,14.3326823 2.734375,14.4238281 C2.9296875,14.514974 3.12825521,14.5605469 3.33007813,14.5605469 C4.11132812,14.5605469 4.7249349,14.280599 5.17089844,13.7207031 C5.61686198,13.1608073 5.83984375,12.3144531 5.83984375,11.1816406 L5.83984375,3.359375 C5.83984375,3.125 5.80403646,2.9296875 5.73242188,2.7734375 C5.66080729,2.6171875 5.48828125,2.48046875 5.21484375,2.36328125 C5.01953125,2.27864583 4.78352865,2.20703125 4.50683594,2.1484375 C4.23014323,2.08984375 4.00065104,2.04752604 3.81835938,2.02148438 L3.81835938,1.25976562 L11.2207031,1.25976562 L11.2207031,2.02148438 Z"></path>
                <path d="M22.8027344,12.7832031 C22.5748698,13.1542969 22.2998047,13.5042318 21.9775391,13.8330078 C21.6552734,14.1617839 21.2890625,14.4433594 20.8789062,14.6777344 C20.4427083,14.9251302 20.0016276,15.1123047 19.5556641,15.2392578 C19.1097005,15.3662109 18.5970052,15.4296875 18.0175781,15.4296875 C17.0540365,15.4296875 16.2223307,15.2929688 15.5224609,15.0195312 C14.8225911,14.7460938 14.2447917,14.3782552 13.7890625,13.9160156 C13.3333333,13.453776 12.9931641,12.9085286 12.7685547,12.2802734 C12.5439453,11.6520182 12.4316406,10.9700521 12.4316406,10.234375 C12.4316406,9.5703125 12.5537109,8.93391927 12.7978516,8.32519531 C13.0419922,7.71647135 13.3886719,7.17447917 13.8378906,6.69921875 C14.280599,6.23697917 14.8388672,5.86263021 15.5126953,5.57617188 C16.1865234,5.28971354 16.9401042,5.14648438 17.7734375,5.14648438 C18.6848958,5.14648438 19.4335938,5.25716146 20.0195312,5.47851562 C20.6054688,5.69986979 21.0904948,6.00585938 21.4746094,6.39648438 C21.8457031,6.76757812 22.1158854,7.20540365 22.2851562,7.70996094 C22.4544271,8.21451823 22.5390625,8.74348958 22.5390625,9.296875 L22.5390625,9.93164062 L15.9375,9.93164062 C15.9375,11.266276 16.1946615,12.281901 16.7089844,12.9785156 C17.2233073,13.6751302 18.0403646,14.0234375 19.1601562,14.0234375 C19.7721354,14.0234375 20.3222656,13.8557943 20.8105469,13.5205078 C21.2988281,13.1852214 21.7154948,12.7604167 22.0605469,12.2460938 L22.8027344,12.7832031 Z M19.0722656,9.07226562 C19.0722656,8.68164062 19.0527344,8.28125 19.0136719,7.87109375 C18.9746094,7.4609375 18.90625,7.12565104 18.8085938,6.86523438 C18.6979167,6.55924479 18.5465495,6.328125 18.3544922,6.171875 C18.1624349,6.015625 17.9199219,5.9375 17.6269531,5.9375 C17.125651,5.9375 16.7252604,6.19140625 16.4257812,6.69921875 C16.1263021,7.20703125 15.9635417,8.01106771 15.9375,9.11132812 L19.0722656,9.07226562 Z"></path>
                <path d="M36.6308594,15.1171875 L30.7519531,15.1171875 L30.7519531,14.4042969 C30.875651,14.391276 31.0253906,14.375 31.2011719,14.3554688 C31.3769531,14.3359375 31.5104167,14.3033854 31.6015625,14.2578125 C31.7382812,14.1861979 31.8359375,14.0820312 31.8945312,13.9453125 C31.953125,13.8085938 31.9824219,13.6067708 31.9824219,13.3398438 L31.9824219,8.76953125 C31.9824219,8.10546875 31.8603516,7.60579427 31.6162109,7.27050781 C31.3720703,6.93522135 31.0123698,6.76757812 30.5371094,6.76757812 C30.2766927,6.76757812 30.0341797,6.80664062 29.8095703,6.88476562 C29.5849609,6.96289062 29.3652344,7.07682292 29.1503906,7.2265625 C28.9615885,7.35677083 28.8102214,7.49023438 28.6962891,7.62695312 C28.5823568,7.76367188 28.4863281,7.88411458 28.4082031,7.98828125 L28.4082031,13.2324219 C28.4082031,13.4602865 28.4407552,13.6507161 28.5058594,13.8037109 C28.5709635,13.9567057 28.6783854,14.0722656 28.828125,14.1503906 C28.9322917,14.2089844 29.0625,14.2610677 29.21875,14.3066406 C29.375,14.3522135 29.5279948,14.3847656 29.6777344,14.4042969 L29.6777344,15.1171875 L23.7402344,15.1171875 L23.7402344,14.4042969 C23.9029948,14.391276 24.0673828,14.3733724 24.2333984,14.3505859 C24.3994141,14.3277995 24.5410156,14.296875 24.6582031,14.2578125 C24.8665365,14.1861979 25.0097656,14.0755208 25.0878906,13.9257812 C25.1660156,13.7760417 25.2050781,13.5807292 25.2050781,13.3398438 L25.2050781,7.65625 C25.2050781,7.45442708 25.1529948,7.25585938 25.0488281,7.06054688 C24.9446615,6.86523438 24.8079427,6.70572917 24.6386719,6.58203125 C24.5214844,6.50390625 24.3733724,6.43880208 24.1943359,6.38671875 C24.0152995,6.33463542 23.8183594,6.29882812 23.6035156,6.27929688 L23.6035156,5.56640625 L28.2617188,5.3125 L28.4082031,5.45898438 L28.4082031,6.875 L28.4472656,6.875 C28.6295573,6.71223958 28.8509115,6.51692708 29.1113281,6.2890625 C29.3717448,6.06119792 29.6126302,5.87565104 29.8339844,5.73242188 C30.0748698,5.57617188 30.390625,5.44270833 30.78125,5.33203125 C31.171875,5.22135417 31.5885417,5.16601562 32.03125,5.16601562 C33.0924479,5.16601562 33.8883464,5.4671224 34.4189453,6.06933594 C34.9495443,6.67154948 35.2148438,7.47070312 35.2148438,8.46679688 L35.2148438,13.2519531 C35.2148438,13.4928385 35.250651,13.6848958 35.3222656,13.828125 C35.3938802,13.9713542 35.5273438,14.0852865 35.7226562,14.1699219 C35.8268229,14.2154948 35.9554036,14.2610677 36.1083984,14.3066406 C36.2613932,14.3522135 36.4355469,14.3847656 36.6308594,14.4042969 L36.6308594,15.1171875 Z"></path>
                <path d="M50.0683594,15.1171875 L45.46875,15.1171875 C44.9023438,14.1210938 44.3847656,13.2763672 43.9160156,12.5830078 C43.4472656,11.8896484 43.0045573,11.2467448 42.5878906,10.6542969 L42.0019531,11.1523438 L42.0019531,13.28125 C42.0019531,13.515625 42.0361328,13.7076823 42.1044922,13.8574219 C42.1728516,14.0071615 42.3046875,14.1178385 42.5,14.1894531 C42.6171875,14.2415365 42.7539062,14.2871094 42.9101562,14.3261719 C43.0664062,14.3652344 43.2226562,14.391276 43.3789062,14.4042969 L43.3789062,15.1171875 L37.3339844,15.1171875 L37.3339844,14.4042969 C37.4967448,14.391276 37.6595052,14.3733724 37.8222656,14.3505859 C37.985026,14.3277995 38.1282552,14.296875 38.2519531,14.2578125 C38.4602865,14.1861979 38.601888,14.0755208 38.6767578,13.9257812 C38.7516276,13.7760417 38.7890625,13.5807292 38.7890625,13.3398438 L38.7890625,2.45117188 C38.7890625,2.23632812 38.741862,2.01334635 38.6474609,1.78222656 C38.5530599,1.55110677 38.4147135,1.37695312 38.2324219,1.25976562 C38.108724,1.18164062 37.9231771,1.11653646 37.6757812,1.06445312 C37.4283854,1.01236979 37.203776,0.979817708 37.0019531,0.966796875 L37.0019531,0.25390625 L41.8554688,0 L42.0019531,0.15625 L42.0019531,10.234375 C42.483724,9.8046875 43.0257161,9.30664062 43.6279297,8.74023438 C44.2301432,8.17382812 44.7135417,7.70507812 45.078125,7.33398438 C45.2929688,7.11263021 45.4117839,6.94498698 45.4345703,6.83105469 C45.4573568,6.7171224 45.46875,6.64713542 45.46875,6.62109375 C45.46875,6.50390625 45.3662109,6.40625 45.1611328,6.328125 C44.9560547,6.25 44.6484375,6.18164062 44.2382812,6.12304688 L44.2382812,5.4296875 L49.1992188,5.4296875 L49.1992188,6.10351562 C48.5481771,6.28580729 48.0517578,6.45670573 47.7099609,6.61621094 C47.3681641,6.77571615 46.9954427,6.98893229 46.5917969,7.25585938 C46.3248698,7.43164062 46.0660807,7.6155599 45.8154297,7.80761719 C45.5647786,7.99967448 45.2766927,8.23893229 44.9511719,8.52539062 C45.5891927,9.44986979 46.1783854,10.3059896 46.71875,11.09375 C47.2591146,11.8815104 47.8255208,12.7148438 48.4179688,13.59375 C48.6197917,13.8997396 48.8704427,14.1048177 49.1699219,14.2089844 C49.469401,14.313151 49.7688802,14.3782552 50.0683594,14.4042969 L50.0683594,15.1171875 Z"></path>
                <path d="M56.3476562,15.1171875 L50.1757812,15.1171875 L50.1757812,14.4042969 C50.3450521,14.391276 50.5110677,14.375 50.6738281,14.3554688 C50.8365885,14.3359375 50.9765625,14.3033854 51.09375,14.2578125 C51.3020833,14.1796875 51.4485677,14.0673828 51.5332031,13.9208984 C51.6178385,13.7744141 51.6601562,13.5807292 51.6601562,13.3398438 L51.6601562,7.65625 C51.6601562,7.42838542 51.6080729,7.2281901 51.5039062,7.05566406 C51.3997396,6.88313802 51.2695312,6.74479167 51.1132812,6.640625 C50.9960938,6.5625 50.8186849,6.48763021 50.5810547,6.41601562 C50.3434245,6.34440104 50.1269531,6.29882812 49.9316406,6.27929688 L49.9316406,5.56640625 L54.7167969,5.3125 L54.8632812,5.45898438 L54.8632812,13.2128906 C54.8632812,13.4407552 54.9121094,13.6344401 55.0097656,13.7939453 C55.1074219,13.9534505 55.2473958,14.0722656 55.4296875,14.1503906 C55.5598958,14.2089844 55.703125,14.2610677 55.859375,14.3066406 C56.015625,14.3522135 56.1783854,14.3847656 56.3476562,14.4042969 L56.3476562,15.1171875 Z M54.921875,1.796875 C54.921875,2.29166667 54.7314453,2.71321615 54.3505859,3.06152344 C53.9697266,3.40983073 53.5188802,3.58398438 52.9980469,3.58398438 C52.4707031,3.58398438 52.0166016,3.40983073 51.6357422,3.06152344 C51.2548828,2.71321615 51.0644531,2.29166667 51.0644531,1.796875 C51.0644531,1.30208333 51.2548828,0.87890625 51.6357422,0.52734375 C52.0166016,0.17578125 52.4707031,0 52.9980469,0 C53.5253906,0 53.9778646,0.17578125 54.3554688,0.52734375 C54.7330729,0.87890625 54.921875,1.30208333 54.921875,1.796875 Z"></path>
                <path d="M70.1367188,15.1171875 L64.2578125,15.1171875 L64.2578125,14.4042969 C64.3815104,14.391276 64.53125,14.375 64.7070312,14.3554688 C64.8828125,14.3359375 65.016276,14.3033854 65.1074219,14.2578125 C65.2441406,14.1861979 65.3417969,14.0820312 65.4003906,13.9453125 C65.4589844,13.8085938 65.4882812,13.6067708 65.4882812,13.3398438 L65.4882812,8.76953125 C65.4882812,8.10546875 65.3662109,7.60579427 65.1220703,7.27050781 C64.8779297,6.93522135 64.5182292,6.76757812 64.0429688,6.76757812 C63.7825521,6.76757812 63.5400391,6.80664062 63.3154297,6.88476562 C63.0908203,6.96289062 62.8710938,7.07682292 62.65625,7.2265625 C62.4674479,7.35677083 62.3160807,7.49023438 62.2021484,7.62695312 C62.0882161,7.76367188 61.9921875,7.88411458 61.9140625,7.98828125 L61.9140625,13.2324219 C61.9140625,13.4602865 61.9466146,13.6507161 62.0117188,13.8037109 C62.0768229,13.9567057 62.1842448,14.0722656 62.3339844,14.1503906 C62.438151,14.2089844 62.5683594,14.2610677 62.7246094,14.3066406 C62.8808594,14.3522135 63.0338542,14.3847656 63.1835938,14.4042969 L63.1835938,15.1171875 L57.2460938,15.1171875 L57.2460938,14.4042969 C57.4088542,14.391276 57.5732422,14.3733724 57.7392578,14.3505859 C57.9052734,14.3277995 58.046875,14.296875 58.1640625,14.2578125 C58.3723958,14.1861979 58.515625,14.0755208 58.59375,13.9257812 C58.671875,13.7760417 58.7109375,13.5807292 58.7109375,13.3398438 L58.7109375,7.65625 C58.7109375,7.45442708 58.6588542,7.25585938 58.5546875,7.06054688 C58.4505208,6.86523438 58.3138021,6.70572917 58.1445312,6.58203125 C58.0273438,6.50390625 57.8792318,6.43880208 57.7001953,6.38671875 C57.5211589,6.33463542 57.3242188,6.29882812 57.109375,6.27929688 L57.109375,5.56640625 L61.7675781,5.3125 L61.9140625,5.45898438 L61.9140625,6.875 L61.953125,6.875 C62.1354167,6.71223958 62.3567708,6.51692708 62.6171875,6.2890625 C62.8776042,6.06119792 63.1184896,5.87565104 63.3398438,5.73242188 C63.5807292,5.57617188 63.8964844,5.44270833 64.2871094,5.33203125 C64.6777344,5.22135417 65.094401,5.16601562 65.5371094,5.16601562 C66.5983073,5.16601562 67.3942057,5.4671224 67.9248047,6.06933594 C68.4554036,6.67154948 68.7207031,7.47070312 68.7207031,8.46679688 L68.7207031,13.2519531 C68.7207031,13.4928385 68.7565104,13.6848958 68.828125,13.828125 C68.8997396,13.9713542 69.0332031,14.0852865 69.2285156,14.1699219 C69.3326823,14.2154948 69.461263,14.2610677 69.6142578,14.3066406 C69.7672526,14.3522135 69.9414062,14.3847656 70.1367188,14.4042969 L70.1367188,15.1171875 Z"></path>
                <path d="M75.5664062,15.4492188 C74.9348958,15.4492188 74.3180339,15.3564453 73.7158203,15.1708984 C73.1136068,14.9853516 72.6464844,14.7884115 72.3144531,14.5800781 L72.0214844,15.2441406 L71.2597656,15.2441406 L71.1328125,11.6015625 L71.8457031,11.6015625 C71.9433594,11.8945312 72.1061198,12.2249349 72.3339844,12.5927734 C72.561849,12.960612 72.8222656,13.2910156 73.1152344,13.5839844 C73.421224,13.8769531 73.7711589,14.124349 74.1650391,14.3261719 C74.5589193,14.5279948 74.9804688,14.6289062 75.4296875,14.6289062 C76.0221354,14.6289062 76.4632161,14.5133464 76.7529297,14.2822266 C77.0426432,14.0511068 77.1875,13.6946615 77.1875,13.2128906 C77.1875,12.952474 77.1223958,12.7376302 76.9921875,12.5683594 C76.8619792,12.3990885 76.6829427,12.2526042 76.4550781,12.1289062 C76.2011719,11.9986979 75.9228516,11.8880208 75.6201172,11.796875 C75.3173828,11.7057292 74.9446615,11.5950521 74.5019531,11.4648438 C74.0592448,11.3346354 73.680013,11.2027995 73.3642578,11.0693359 C73.0485026,10.9358724 72.7213542,10.7259115 72.3828125,10.4394531 C72.0898438,10.1855469 71.8554688,9.87955729 71.6796875,9.52148438 C71.5039062,9.16341146 71.4160156,8.73697917 71.4160156,8.2421875 C71.4160156,7.32421875 71.8017578,6.58203125 72.5732422,6.015625 C73.3447266,5.44921875 74.3554688,5.16601562 75.6054688,5.16601562 C76.1979167,5.16601562 76.7431641,5.22623698 77.2412109,5.34667969 C77.7392578,5.4671224 78.1575521,5.59895833 78.4960938,5.7421875 L78.7011719,5.16601562 L79.4433594,5.16601562 L79.5996094,8.49609375 L78.90625,8.49609375 C78.6783854,7.81901042 78.2877604,7.23470052 77.734375,6.74316406 C77.1809896,6.2516276 76.5852865,6.00585938 75.9472656,6.00585938 C75.4459635,6.00585938 75.0520833,6.11002604 74.765625,6.31835938 C74.4791667,6.52669271 74.3359375,6.81640625 74.3359375,7.1875 C74.3359375,7.68229167 74.5458984,8.04036458 74.9658203,8.26171875 C75.3857422,8.48307292 75.9733073,8.69140625 76.7285156,8.88671875 C77.8938802,9.18619792 78.7467448,9.59472656 79.2871094,10.1123047 C79.827474,10.6298828 80.0976562,11.2890625 80.0976562,12.0898438 C80.0976562,13.1575521 79.679362,13.984375 78.8427734,14.5703125 C78.0061849,15.15625 76.9140625,15.4492188 75.5664062,15.4492188 Z"></path>
            </g>
            <g class="text" transform="translate(71.757812, 27.939453)" fill="#000000" fill-rule="nonzero">
                <path d="M0,22.1777344 L8.07128906,22.1777344 C14.4140625,22.1777344 18.1494141,18.2373047 18.1494141,11.5283203 L18.1494141,11.4990234 C18.1494141,4.8046875 14.3994141,1.04003906 8.07128906,1.04003906 L0,1.04003906 L0,22.1777344 Z M4.42382812,18.515625 L4.42382812,4.6875 L7.54394531,4.6875 C11.4257812,4.6875 13.6376953,7.10449219 13.6376953,11.5136719 L13.6376953,11.5429688 C13.6376953,16.1132812 11.4990234,18.515625 7.54394531,18.515625 L4.42382812,18.515625 Z"></path>
                <path d="M27.7880859,22.5 C32.2705078,22.5 34.4384766,19.8486328 34.921875,17.5341797 L34.9658203,17.3730469 L31.0400391,17.3730469 L31.0107422,17.4609375 C30.703125,18.3398438 29.6337891,19.3066406 27.8759766,19.3066406 C25.6933594,19.3066406 24.3310547,17.8417969 24.2871094,15.3369141 L35.0976562,15.3369141 L35.0976562,14.0185547 C35.0976562,9.27246094 32.2119141,6.15234375 27.6123047,6.15234375 C23.0126953,6.15234375 20.0683594,9.34570312 20.0683594,14.3408203 L20.0683594,14.3554688 C20.0683594,19.3798828 22.9833984,22.5 27.7880859,22.5 Z M27.6855469,9.34570312 C29.4580078,9.34570312 30.7324219,10.4736328 30.9960938,12.6416016 L24.3310547,12.6416016 C24.609375,10.5175781 25.9277344,9.34570312 27.6855469,9.34570312 Z"></path>
                <path d="M43.7548828,22.5 C47.7978516,22.5 50.625,20.4785156 50.625,17.4023438 L50.625,17.3876953 C50.625,15.0732422 49.2773438,13.7841797 45.9960938,13.0957031 L43.3300781,12.5244141 C41.7480469,12.1875 41.2060547,11.6601562 41.2060547,10.8544922 L41.2060547,10.8398438 C41.2060547,9.82910156 42.1289062,9.16992188 43.6083984,9.16992188 C45.1904297,9.16992188 46.1132812,10.0195312 46.2597656,11.1474609 L46.2744141,11.2646484 L50.2148438,11.2646484 L50.2148438,11.1181641 C50.1123047,8.36425781 47.7832031,6.15234375 43.6083984,6.15234375 C39.609375,6.15234375 37.03125,8.0859375 37.03125,11.0742188 L37.03125,11.0888672 C37.03125,13.4326172 38.5693359,14.9560547 41.6162109,15.6005859 L44.2822266,16.1572266 C45.8203125,16.4941406 46.3476562,16.9775391 46.3476562,17.8125 L46.3476562,17.8271484 C46.3476562,18.8378906 45.3662109,19.4677734 43.7548828,19.4677734 C42.0410156,19.4677734 41.1181641,18.75 40.8398438,17.5195312 L40.8105469,17.3876953 L36.6357422,17.3876953 L36.6503906,17.5195312 C36.9873047,20.4931641 39.4042969,22.5 43.7548828,22.5 Z"></path>
                <path d="M54.9609375,4.453125 C56.25,4.453125 57.2460938,3.44238281 57.2460938,2.2265625 C57.2460938,1.01074219 56.25,0 54.9609375,0 C53.671875,0 52.6757812,1.01074219 52.6757812,2.2265625 C52.6757812,3.44238281 53.671875,4.453125 54.9609375,4.453125 Z M52.8222656,22.1777344 L57.0996094,22.1777344 L57.0996094,6.47460938 L52.8222656,6.47460938 L52.8222656,22.1777344 Z"></path>
                <path d="M67.2949219,27.6269531 C72.0117188,27.6269531 74.9560547,25.2392578 74.9560547,21.7382812 L74.9560547,6.47460938 L70.6787109,6.47460938 L70.6787109,9.15527344 L70.5908203,9.15527344 C69.7412109,7.32421875 68.0273438,6.15234375 65.8154297,6.15234375 C61.8457031,6.15234375 59.3847656,9.12597656 59.3847656,14.1357422 L59.3847656,14.1503906 C59.3847656,19.0283203 61.8164062,21.9580078 65.7421875,21.9580078 C68.0126953,21.9580078 69.7705078,20.9179688 70.5908203,19.2773438 L70.6787109,19.2773438 L70.6787109,21.6796875 C70.6787109,23.4375 69.5068359,24.5800781 67.2949219,24.5800781 C65.5078125,24.5800781 64.3652344,23.90625 64.0283203,23.1298828 L63.984375,23.0273438 L59.8242188,23.0273438 L59.8388672,23.1591797 C60.2490234,25.6787109 62.9736328,27.6269531 67.2949219,27.6269531 Z M67.2216797,18.8232422 C65.0830078,18.8232422 63.7353516,17.0800781 63.7353516,14.2529297 L63.7353516,14.2382812 C63.7353516,11.4257812 65.0976562,9.69726562 67.2216797,9.69726562 C69.3017578,9.69726562 70.6933594,11.4404297 70.6933594,14.2382812 L70.6933594,14.2529297 C70.6933594,17.0654297 69.3164062,18.8232422 67.2216797,18.8232422 Z"></path>
                <path d="M77.7539062,22.1777344 L82.03125,22.1777344 L82.03125,13.1542969 C82.03125,11.1035156 83.2470703,9.69726562 85.1660156,9.69726562 C87.0849609,9.69726562 88.0517578,10.8691406 88.0517578,12.9199219 L88.0517578,22.1777344 L92.3291016,22.1777344 L92.3291016,12.0410156 C92.3291016,8.36425781 90.3662109,6.15234375 86.9091797,6.15234375 C84.5361328,6.15234375 82.9248047,7.25097656 82.1191406,9.05273438 L82.03125,9.05273438 L82.03125,6.47460938 L77.7539062,6.47460938 L77.7539062,22.1777344 Z"></path>
                <polygon points="101.337891 22.1777344 115.004883 22.1777344 115.004883 18.5302734 105.761719 18.5302734 105.761719 1.04003906 101.337891 1.04003906"></polygon>
                <path d="M119.487305,4.453125 C120.776367,4.453125 121.772461,3.44238281 121.772461,2.2265625 C121.772461,1.01074219 120.776367,0 119.487305,0 C118.198242,0 117.202148,1.01074219 117.202148,2.2265625 C117.202148,3.44238281 118.198242,4.453125 119.487305,4.453125 Z M117.348633,22.1777344 L121.625977,22.1777344 L121.625977,6.47460938 L117.348633,6.47460938 L117.348633,22.1777344 Z"></path>
                <path d="M133.78418,22.5 C137.739258,22.5 140.185547,19.4238281 140.185547,14.3261719 L140.185547,14.3115234 C140.185547,9.19921875 137.739258,6.15234375 133.798828,6.15234375 C131.557617,6.15234375 129.814453,7.29492187 128.950195,9.19921875 L128.862305,9.19921875 L128.862305,1.04003906 L124.584961,1.04003906 L124.584961,22.1777344 L128.862305,22.1777344 L128.862305,19.4970703 L128.950195,19.4970703 C129.799805,21.3574219 131.52832,22.5 133.78418,22.5 Z M132.363281,18.9550781 C130.283203,18.9550781 128.862305,17.1679688 128.862305,14.3261719 L128.862305,14.3115234 C128.862305,11.484375 130.297852,9.69726562 132.363281,9.69726562 C134.487305,9.69726562 135.834961,11.4404297 135.834961,14.3115234 L135.834961,14.3261719 C135.834961,17.1826172 134.487305,18.9550781 132.363281,18.9550781 Z"></path>
                <path d="M142.382812,22.1777344 L146.660156,22.1777344 L146.660156,13.3886719 C146.660156,11.1035156 147.890625,9.84375 150,9.84375 C150.615234,9.84375 151.201172,9.93164062 151.552734,10.078125 L151.552734,6.31347656 C151.230469,6.22558594 150.791016,6.15234375 150.322266,6.15234375 C148.491211,6.15234375 147.216797,7.28027344 146.748047,9.21386719 L146.660156,9.21386719 L146.660156,6.47460938 L142.382812,6.47460938 L142.382812,22.1777344 Z"></path>
                <path d="M157.602539,22.4267578 C159.667969,22.4267578 161.337891,21.4453125 162.231445,19.8339844 L162.319336,19.8339844 L162.319336,22.1777344 L166.59668,22.1777344 L166.59668,11.4111328 C166.59668,8.24707031 163.974609,6.15234375 159.916992,6.15234375 C155.771484,6.15234375 153.28125,8.23242188 153.046875,11.1328125 L153.032227,11.3085938 L156.943359,11.3085938 L156.972656,11.1767578 C157.177734,10.1660156 158.144531,9.41894531 159.741211,9.41894531 C161.411133,9.41894531 162.319336,10.2832031 162.319336,11.6748047 L162.319336,12.6416016 L158.4375,12.8759766 C154.541016,13.125 152.329102,14.7949219 152.329102,17.6513672 L152.329102,17.6806641 C152.329102,20.4492188 154.453125,22.4267578 157.602539,22.4267578 Z M156.5625,17.4609375 L156.5625,17.4316406 C156.5625,16.3183594 157.426758,15.6152344 159.082031,15.5126953 L162.319336,15.3076172 L162.319336,16.4355469 C162.319336,18.0761719 160.913086,19.3066406 158.994141,19.3066406 C157.514648,19.3066406 156.5625,18.6181641 156.5625,17.4609375 Z"></path>
                <path d="M169.350586,22.1777344 L173.62793,22.1777344 L173.62793,13.3886719 C173.62793,11.1035156 174.858398,9.84375 176.967773,9.84375 C177.583008,9.84375 178.168945,9.93164062 178.520508,10.078125 L178.520508,6.31347656 C178.198242,6.22558594 177.758789,6.15234375 177.290039,6.15234375 C175.458984,6.15234375 174.18457,7.28027344 173.71582,9.21386719 L173.62793,9.21386719 L173.62793,6.47460938 L169.350586,6.47460938 L169.350586,22.1777344 Z"></path>
                <path d="M182.724609,27.3486328 C186.210938,27.3486328 188.320312,26.1621094 189.550781,22.4560547 L194.941406,6.47460938 L190.429688,6.47460938 L187.104492,18.75 L186.987305,18.75 L183.676758,6.47460938 L178.974609,6.47460938 L184.526367,22.1777344 L184.335938,22.6904297 C183.955078,23.7597656 183.251953,24.1259766 181.977539,24.1259766 C181.347656,24.1259766 180.849609,24.0380859 180.541992,23.9794922 L180.541992,27.1582031 C181.040039,27.2460938 181.889648,27.3486328 182.724609,27.3486328 Z"></path>
            </g>
            <path class="figures" d="M32.6137819,33.8444602 L2.54969389,33.8444602 C1.14153684,33.8444602 0,32.6769536 0,31.2367612 C0,30.7913947 0.11152861,30.3534497 0.32395522,29.9646699 L15.3559992,2.45326441 C16.0429283,1.19605782 17.5962915,0.7464252 18.825533,1.44898181 C19.237395,1.68437608 19.5773184,2.03203256 19.8074766,2.45326441 L34.8395205,29.9646699 C35.5264496,31.2218764 35.0868185,32.8105785 33.857577,33.5131351 C33.4774452,33.7303944 33.0492417,33.8444602 32.6137819,33.8444602 Z M28.1160234,17.094738 C35.2111906,13.0647288 44.1049062,14.3293322 49.8178648,20.1805375 C55.5308233,26.0317428 56.6451013,35.0173145 52.5368502,42.1065197 C48.4285992,49.195725 40.1174634,52.6290638 32.2565807,50.4843201 C24.3956981,48.3395766 18.9360944,41.1490635 18.9344262,32.9385181" stroke="#000000" stroke-width="4"></path>
        </g>
        <style>
            @media (prefers-color-scheme: dark) {
                .figures {
                    stroke: #ffffff;
                }
                .text {
                    fill: #ffffff;
                }
            }
        </style>
    </g>
</svg>
