<?xml version="1.0" encoding="UTF-8"?>
<svg width="48px" height="48px" viewBox="0 0 48 48" version="1.1" xmlns="http://www.w3.org/2000/svg" xmlns:xlink="http://www.w3.org/1999/xlink">
    <defs>
        <path d="M0,0 L48,0 L48,48 L0,48 L0,0 Z" id="path-1"></path>
    </defs>
    <g id="Frame" stroke="none" fill="none" xlink:href="#path-1" fill-rule="evenodd" stroke-width="1">
        <g id="Group" transform="translate(-8, -8)" fill="currentColor">
            <path d="M49.4361148,12 C50.3276335,12 50.6509198,12.0928256 50.9768457,12.2671327 C51.3027716,12.4414398 51.5585602,12.6972284 51.7328673,13.0231543 C51.9071744,13.3490802 52,13.6723665 52,14.5638852 L52,49.4361148 C52,50.3276335 51.9071744,50.6509198 51.7328673,50.9768457 C51.5585602,51.3027716 51.3027716,51.5585602 50.9768457,51.7328673 C50.6509198,51.9071744 50.3276335,52 49.4361148,52 L14.5638852,52 C13.6723665,52 13.3490802,51.9071744 13.0231543,51.7328673 C12.6972284,51.5585602 12.4414398,51.3027716 12.2671327,50.9768457 C12.0928256,50.6509198 12,50.3276335 12,49.4361148 L12,14.5638852 C12,13.6723665 12.0928256,13.3490802 12.2671327,13.0231543 C12.4414398,12.6972284 12.6972284,12.4414398 13.0231543,12.2671327 C13.3490802,12.0928256 13.6723665,12 14.5638852,12 L49.4361148,12 Z M33,44 L17,44 L17,47 L33,47 L33,44 Z M25.839,17 L17,17 L17,19.6144 L19.9788,19.6144 L19.9788,29.3856 L17,29.3856 L17,32 L25.839,32 L25.839,29.3856 L22.8602,29.3856 L22.8602,19.6144 L25.839,19.6144 L25.839,17 Z M34.6458,17 L31.7209,17 L31.7209,27.072 C31.7209,27.508 31.6281,27.8953 31.4424,28.2345 C31.2568,28.5737 30.9944,28.8361 30.6552,29.0218 C30.316,29.2074 29.9281,29.3002 29.4927,29.3002 L27.3389,29.3002 L27.3389,32 L29.8565,32 C30.7635,32 31.5811,31.7966 32.3099,31.3892 C33.0387,30.9824 33.6099,30.4198 34.0242,29.7019 C34.4384,28.984 34.6458,28.1749 34.6458,27.2748 L34.6458,17 Z"></path>
        </g>
    </g>
</svg>
