<svg xmlns="http://www.w3.org/2000/svg" class="ionicon" viewBox="0 0 512 512">
    <rect x="48" y="48" width="416" height="416" rx="70" fill="none" stroke="currentColor"
          stroke-linejoin="round" stroke-width="32" />
    <path fill-rule="evenodd" clip-rule="evenodd" d="M238.474 422C267.59 422 287.703 405.4 287.703 371.35V262.039H253.348V371.99C253.348 388.426 245.65 392.65 236.28 392.65C225.429 392.65 221.393 385.465 216.499 376.752C216.312 376.419 216.123 376.083 215.933 375.746L189.167 391.947C196.913 408.383 212.177 422 238.474 422ZM305.404 388.426C315.031 407.446 334.754 421.219 365.275 421.219C396.506 421.219 419.751 405.806 419.743 376.214C419.743 348.762 404.01 336.535 376.065 324.557L367.851 321.036C353.766 314.93 347.66 310.94 347.66 301.079C347.66 293.13 353.766 287.025 363.393 287.025C372.809 287.025 378.884 290.983 384.521 301.079L410.162 284.596C399.349 265.576 384.334 259.08 363.432 259.08C334.082 259.08 315.304 277.085 315.304 301.735C315.304 328.508 331.029 341.188 354.75 351.276L362.964 354.805C377.994 361.411 386.138 365.4 386.138 376.667C386.138 386.06 378.228 392.088 364.611 392.088C348.41 392.088 339.235 384.421 332.208 372.912L305.404 388.426Z" fill="currentColor"/>
</svg>