<?xml version="1.0" encoding="UTF-8"?>
<svg width="250px" height="160px" viewBox="0 0 250 160" version="1.1" xmlns="http://www.w3.org/2000/svg" xmlns:xlink="http://www.w3.org/1999/xlink">
    <g stroke="none" stroke-width="1" fill="none" fill-rule="evenodd">
        <g>
            <path d="M49.6319029,70 L200.368097,70 C201.556094,70 202.30184,70.1856512 202.953691,70.5342654 C203.605543,70.8828796 204.11712,71.3944567 204.465735,72.0463086 C204.814349,72.6981604 205,73.4439064 205,74.6319029 L205,75.3680971 C205,76.5560936 204.814349,77.3018396 204.465735,77.9536914 C204.11712,78.6055433 203.605543,79.1171204 202.953691,79.4657346 C202.30184,79.8143488 201.556094,80 200.368097,80 L49.6319029,80 C48.4439064,80 47.6981604,79.8143488 47.0463086,79.4657346 C46.3944567,79.1171204 45.8828796,78.6055433 45.5342654,77.9536914 C45.1856512,77.3018396 45,76.5560936 45,75.3680971 L45,74.6319029 C45,73.4439064 45.1856512,72.6981604 45.5342654,72.0463086 C45.8828796,71.3944567 46.3944567,70.8828796 47.0463086,70.5342654 C47.6981604,70.1856512 48.4439064,70 49.6319029,70 Z" fill="var(--text-color-secondary)"></path>
            <path d="M49.6319029,85 L200.368097,85 C201.556094,85 202.30184,85.1856512 202.953691,85.5342654 C203.605543,85.8828796 204.11712,86.3944567 204.465735,87.0463086 C204.814349,87.6981604 205,88.4439064 205,89.6319029 L205,90.3680971 C205,91.5560936 204.814349,92.3018396 204.465735,92.9536914 C204.11712,93.6055433 203.605543,94.1171204 202.953691,94.4657346 C202.30184,94.8143488 201.556094,95 200.368097,95 L49.6319029,95 C48.4439064,95 47.6981604,94.8143488 47.0463086,94.4657346 C46.3944567,94.1171204 45.8828796,93.6055433 45.5342654,92.9536914 C45.1856512,92.3018396 45,91.5560936 45,90.3680971 L45,89.6319029 C45,88.4439064 45.1856512,87.6981604 45.5342654,87.0463086 C45.8828796,86.3944567 46.3944567,85.8828796 47.0463086,85.5342654 C47.6981604,85.1856512 48.4439064,85 49.6319029,85 Z" fill="var(--text-color-secondary)"></path>
            <path d="M49.6319029,100 L200.368097,100 C201.556094,100 202.30184,100.185651 202.953691,100.534265 C203.605543,100.88288 204.11712,101.394457 204.465735,102.046309 C204.814349,102.69816 205,103.443906 205,104.631903 L205,105.368097 C205,106.556094 204.814349,107.30184 204.465735,107.953691 C204.11712,108.605543 203.605543,109.11712 202.953691,109.465735 C202.30184,109.814349 201.556094,110 200.368097,110 L49.6319029,110 C48.4439064,110 47.6981604,109.814349 47.0463086,109.465735 C46.3944567,109.11712 45.8828796,108.605543 45.5342654,107.953691 C45.1856512,107.30184 45,106.556094 45,105.368097 L45,104.631903 C45,103.443906 45.1856512,102.69816 45.5342654,102.046309 C45.8828796,101.394457 46.3944567,100.88288 47.0463086,100.534265 C47.6981604,100.185651 48.4439064,100 49.6319029,100 Z" fill="var(--text-color-secondary)"></path>
            <path d="M49.6319029,115 L200.368097,115 C201.556094,115 202.30184,115.185651 202.953691,115.534265 C203.605543,115.88288 204.11712,116.394457 204.465735,117.046309 C204.814349,117.69816 205,118.443906 205,119.631903 L205,120.368097 C205,121.556094 204.814349,122.30184 204.465735,122.953691 C204.11712,123.605543 203.605543,124.11712 202.953691,124.465735 C202.30184,124.814349 201.556094,125 200.368097,125 L49.6319029,125 C48.4439064,125 47.6981604,124.814349 47.0463086,124.465735 C46.3944567,124.11712 45.8828796,123.605543 45.5342654,122.953691 C45.1856512,122.30184 45,121.556094 45,120.368097 L45,119.631903 C45,118.443906 45.1856512,117.69816 45.5342654,117.046309 C45.8828796,116.394457 46.3944567,115.88288 47.0463086,115.534265 C47.6981604,115.185651 48.4439064,115 49.6319029,115 Z" fill="var(--text-color-secondary)"></path>
            <path d="M49.6319029,130 L200.368097,130 C201.556094,130 202.30184,130.185651 202.953691,130.534265 C203.605543,130.88288 204.11712,131.394457 204.465735,132.046309 C204.814349,132.69816 205,133.443906 205,134.631903 L205,135.368097 C205,136.556094 204.814349,137.30184 204.465735,137.953691 C204.11712,138.605543 203.605543,139.11712 202.953691,139.465735 C202.30184,139.814349 201.556094,140 200.368097,140 L49.6319029,140 C48.4439064,140 47.6981604,139.814349 47.0463086,139.465735 C46.3944567,139.11712 45.8828796,138.605543 45.5342654,137.953691 C45.1856512,137.30184 45,136.556094 45,135.368097 L45,134.631903 C45,133.443906 45.1856512,132.69816 45.5342654,132.046309 C45.8828796,131.394457 46.3944567,130.88288 47.0463086,130.534265 C47.6981604,130.185651 48.4439064,130 49.6319029,130 Z" fill="var(--text-color-secondary)"></path>
            <path d="M50.1277704,40 L128.87223,40 C130.655267,40 131.30184,40.1856512 131.953691,40.5342654 C132.605543,40.8828796 133.11712,41.3944567 133.465735,42.0463086 C133.814349,42.6981604 134,43.3447329 134,45.1277704 L134,48.8722296 C134,50.6552671 133.814349,51.3018396 133.465735,51.9536914 C133.11712,52.6055433 132.605543,53.1171204 131.953691,53.4657346 C131.30184,53.8143488 130.655267,54 128.87223,54 L50.1277704,54 C48.3447329,54 47.6981604,53.8143488 47.0463086,53.4657346 C46.3944567,53.1171204 45.8828796,52.6055433 45.5342654,51.9536914 C45.1856512,51.3018396 45,50.6552671 45,48.8722296 L45,45.1277704 C45,43.3447329 45.1856512,42.6981604 45.5342654,42.0463086 C45.8828796,41.3944567 46.3944567,40.8828796 47.0463086,40.5342654 C47.6981604,40.1856512 48.3447329,40 50.1277704,40 Z" fill="var(--text-color)"></path>
            <polygon fill="var(--text-color)" points="247.477943 23.6630915 2.74399584 23.6630915 2.74399584 16.4519392 5.4811275 9.76437592 12.2355266 4.0151813 27.5091494 2.36969392 44.907548 2.36969392 230.516198 2.36969392 238.280532 4.0151813 243.861982 8.42212168 247.477943 16.4519392"></polygon>
            <path d="M224.836974,2.00088629 C232.827465,2.03102479 235.824365,2.83005759 238.825259,4.43495343 C241.730826,5.98886768 244.011132,8.26917367 245.565047,11.1747407 C247.201411,14.2344761 248,17.290059 248,25.638852 L248,25.638852 L248,134.361148 C248,142.709941 247.201411,145.765524 245.565047,148.825259 C244.011132,151.730826 241.730826,154.011132 238.825259,155.565047 C235.765524,157.201411 232.709941,158 224.361148,158 L224.361148,158 L25.638852,158 C17.290059,158 14.2344761,157.201411 11.1747407,155.565047 C8.26917367,154.011132 5.98886768,151.730826 4.43495343,148.825259 C2.83145498,145.826978 2.0324545,142.833141 2.00095428,134.850609 L2.00095428,134.850609 L2.00088629,25.1630258 C2.03102479,17.1725351 2.83005759,14.175635 4.43495343,11.1747407 C5.98886768,8.26917367 8.26917367,5.98886768 11.1747407,4.43495343 C14.1730221,2.83145498 17.1668589,2.0324545 25.1493832,2.00095428 L25.1493832,2.00095428 Z" stroke="var(--text-color)" stroke-width="4"></path>
        </g>
    </g>
</svg>