<?xml version="1.0" encoding="UTF-8"?>
<svg width="250px" height="160px" viewBox="0 0 250 160" version="1.1" xmlns="http://www.w3.org/2000/svg" xmlns:xlink="http://www.w3.org/1999/xlink">
    <g stroke="none" stroke-width="1" fill="none" fill-rule="evenodd">
        <g>
            <path d="M31.1277704,40 L64.8722296,40 C66.6552671,40 67.3018396,40.1856512 67.9536914,40.5342654 C68.6055433,40.8828796 69.1171204,41.3944567 69.4657346,42.0463086 C69.8143488,42.6981604 70,43.3447329 70,45.1277704 L70,48.8722296 C70,50.6552671 69.8143488,51.3018396 69.4657346,51.9536914 C69.1171204,52.6055433 68.6055433,53.1171204 67.9536914,53.4657346 C67.3018396,53.8143488 66.6552671,54 64.8722296,54 L31.1277704,54 C29.3447329,54 28.6981604,53.8143488 28.0463086,53.4657346 C27.3944567,53.1171204 26.8828796,52.6055433 26.5342654,51.9536914 C26.1856512,51.3018396 26,50.6552671 26,48.8722296 L26,45.1277704 C26,43.3447329 26.1856512,42.6981604 26.5342654,42.0463086 C26.8828796,41.3944567 27.3944567,40.8828796 28.0463086,40.5342654 C28.6981604,40.1856512 29.3447329,40 31.1277704,40 Z" fill="var(--text-color)"></path>
            <path d="M30.6319029,70 L56.3680971,70 C57.5560936,70 58.3018396,70.1856512 58.9536914,70.5342654 C59.6055433,70.8828796 60.1171204,71.3944567 60.4657346,72.0463086 C60.8143488,72.6981604 61,73.4439064 61,74.6319029 L61,75.3680971 C61,76.5560936 60.8143488,77.3018396 60.4657346,77.9536914 C60.1171204,78.6055433 59.6055433,79.1171204 58.9536914,79.4657346 C58.3018396,79.8143488 57.5560936,80 56.3680971,80 L30.6319029,80 C29.4439064,80 28.6981604,79.8143488 28.0463086,79.4657346 C27.3944567,79.1171204 26.8828796,78.6055433 26.5342654,77.9536914 C26.1856512,77.3018396 26,76.5560936 26,75.3680971 L26,74.6319029 C26,73.4439064 26.1856512,72.6981604 26.5342654,72.0463086 C26.8828796,71.3944567 27.3944567,70.8828796 28.0463086,70.5342654 C28.6981604,70.1856512 29.4439064,70 30.6319029,70 Z" fill="var(--text-color-secondary)"></path>
            <path d="M109.631903,70 L220.368097,70 C221.556094,70 222.30184,70.1856512 222.953691,70.5342654 C223.605543,70.8828796 224.11712,71.3944567 224.465735,72.0463086 C224.814349,72.6981604 225,73.4439064 225,74.6319029 L225,75.3680971 C225,76.5560936 224.814349,77.3018396 224.465735,77.9536914 C224.11712,78.6055433 223.605543,79.1171204 222.953691,79.4657346 C222.30184,79.8143488 221.556094,80 220.368097,80 L109.631903,80 C108.443906,80 107.69816,79.8143488 107.046309,79.4657346 C106.394457,79.1171204 105.88288,78.6055433 105.534265,77.9536914 C105.185651,77.3018396 105,76.5560936 105,75.3680971 L105,74.6319029 C105,73.4439064 105.185651,72.6981604 105.534265,72.0463086 C105.88288,71.3944567 106.394457,70.8828796 107.046309,70.5342654 C107.69816,70.1856512 108.443906,70 109.631903,70 Z" fill="var(--text-color-secondary)"></path>
            <path d="M109.631903,85 L220.368097,85 C221.556094,85 222.30184,85.1856512 222.953691,85.5342654 C223.605543,85.8828796 224.11712,86.3944567 224.465735,87.0463086 C224.814349,87.6981604 225,88.4439064 225,89.6319029 L225,90.3680971 C225,91.5560936 224.814349,92.3018396 224.465735,92.9536914 C224.11712,93.6055433 223.605543,94.1171204 222.953691,94.4657346 C222.30184,94.8143488 221.556094,95 220.368097,95 L109.631903,95 C108.443906,95 107.69816,94.8143488 107.046309,94.4657346 C106.394457,94.1171204 105.88288,93.6055433 105.534265,92.9536914 C105.185651,92.3018396 105,91.5560936 105,90.3680971 L105,89.6319029 C105,88.4439064 105.185651,87.6981604 105.534265,87.0463086 C105.88288,86.3944567 106.394457,85.8828796 107.046309,85.5342654 C107.69816,85.1856512 108.443906,85 109.631903,85 Z" fill="var(--text-color-secondary)"></path>
            <path d="M109.631903,100 L220.368097,100 C221.556094,100 222.30184,100.185651 222.953691,100.534265 C223.605543,100.88288 224.11712,101.394457 224.465735,102.046309 C224.814349,102.69816 225,103.443906 225,104.631903 L225,105.368097 C225,106.556094 224.814349,107.30184 224.465735,107.953691 C224.11712,108.605543 223.605543,109.11712 222.953691,109.465735 C222.30184,109.814349 221.556094,110 220.368097,110 L109.631903,110 C108.443906,110 107.69816,109.814349 107.046309,109.465735 C106.394457,109.11712 105.88288,108.605543 105.534265,107.953691 C105.185651,107.30184 105,106.556094 105,105.368097 L105,104.631903 C105,103.443906 105.185651,102.69816 105.534265,102.046309 C105.88288,101.394457 106.394457,100.88288 107.046309,100.534265 C107.69816,100.185651 108.443906,100 109.631903,100 Z" fill="var(--text-color-secondary)"></path>
            <path d="M109.631903,115 L220.368097,115 C221.556094,115 222.30184,115.185651 222.953691,115.534265 C223.605543,115.88288 224.11712,116.394457 224.465735,117.046309 C224.814349,117.69816 225,118.443906 225,119.631903 L225,120.368097 C225,121.556094 224.814349,122.30184 224.465735,122.953691 C224.11712,123.605543 223.605543,124.11712 222.953691,124.465735 C222.30184,124.814349 221.556094,125 220.368097,125 L109.631903,125 C108.443906,125 107.69816,124.814349 107.046309,124.465735 C106.394457,124.11712 105.88288,123.605543 105.534265,122.953691 C105.185651,122.30184 105,121.556094 105,120.368097 L105,119.631903 C105,118.443906 105.185651,117.69816 105.534265,117.046309 C105.88288,116.394457 106.394457,115.88288 107.046309,115.534265 C107.69816,115.185651 108.443906,115 109.631903,115 Z" fill="var(--text-color-secondary)"></path>
            <path d="M30.6319029,100 L53.3680971,100 C54.5560936,100 55.3018396,100.185651 55.9536914,100.534265 C56.6055433,100.88288 57.1171204,101.394457 57.4657346,102.046309 C57.8143488,102.69816 58,103.443906 58,104.631903 L58,105.368097 C58,106.556094 57.8143488,107.30184 57.4657346,107.953691 C57.1171204,108.605543 56.6055433,109.11712 55.9536914,109.465735 C55.3018396,109.814349 54.5560936,110 53.3680971,110 L30.6319029,110 C29.4439064,110 28.6981604,109.814349 28.0463086,109.465735 C27.3944567,109.11712 26.8828796,108.605543 26.5342654,107.953691 C26.1856512,107.30184 26,106.556094 26,105.368097 L26,104.631903 C26,103.443906 26.1856512,102.69816 26.5342654,102.046309 C26.8828796,101.394457 27.3944567,100.88288 28.0463086,100.534265 C28.6981604,100.185651 29.4439064,100 30.6319029,100 Z" fill="var(--text-color-secondary)"></path>
            <path d="M109.631903,130 L220.368097,130 C221.556094,130 222.30184,130.185651 222.953691,130.534265 C223.605543,130.88288 224.11712,131.394457 224.465735,132.046309 C224.814349,132.69816 225,133.443906 225,134.631903 L225,135.368097 C225,136.556094 224.814349,137.30184 224.465735,137.953691 C224.11712,138.605543 223.605543,139.11712 222.953691,139.465735 C222.30184,139.814349 221.556094,140 220.368097,140 L109.631903,140 C108.443906,140 107.69816,139.814349 107.046309,139.465735 C106.394457,139.11712 105.88288,138.605543 105.534265,137.953691 C105.185651,137.30184 105,136.556094 105,135.368097 L105,134.631903 C105,133.443906 105.185651,132.69816 105.534265,132.046309 C105.88288,131.394457 106.394457,130.88288 107.046309,130.534265 C107.69816,130.185651 108.443906,130 109.631903,130 Z" fill="var(--text-color-secondary)"></path>
            <path d="M30.6319029,130 L53.3680971,130 C54.5560936,130 55.3018396,130.185651 55.9536914,130.534265 C56.6055433,130.88288 57.1171204,131.394457 57.4657346,132.046309 C57.8143488,132.69816 58,133.443906 58,134.631903 L58,135.368097 C58,136.556094 57.8143488,137.30184 57.4657346,137.953691 C57.1171204,138.605543 56.6055433,139.11712 55.9536914,139.465735 C55.3018396,139.814349 54.5560936,140 53.3680971,140 L30.6319029,140 C29.4439064,140 28.6981604,139.814349 28.0463086,139.465735 C27.3944567,139.11712 26.8828796,138.605543 26.5342654,137.953691 C26.1856512,137.30184 26,136.556094 26,135.368097 L26,134.631903 C26,133.443906 26.1856512,132.69816 26.5342654,132.046309 C26.8828796,131.394457 27.3944567,130.88288 28.0463086,130.534265 C28.6981604,130.185651 29.4439064,130 30.6319029,130 Z" fill="var(--text-color-secondary)"></path>
            <path d="M30.6319029,115 L49.3680971,115 C50.5560936,115 51.3018396,115.185651 51.9536914,115.534265 C52.6055433,115.88288 53.1171204,116.394457 53.4657346,117.046309 C53.8143488,117.69816 54,118.443906 54,119.631903 L54,120.368097 C54,121.556094 53.8143488,122.30184 53.4657346,122.953691 C53.1171204,123.605543 52.6055433,124.11712 51.9536914,124.465735 C51.3018396,124.814349 50.5560936,125 49.3680971,125 L30.6319029,125 C29.4439064,125 28.6981604,124.814349 28.0463086,124.465735 C27.3944567,124.11712 26.8828796,123.605543 26.5342654,122.953691 C26.1856512,122.30184 26,121.556094 26,120.368097 L26,119.631903 C26,118.443906 26.1856512,117.69816 26.5342654,117.046309 C26.8828796,116.394457 27.3944567,115.88288 28.0463086,115.534265 C28.6981604,115.185651 29.4439064,115 30.6319029,115 Z" fill="var(--text-color-secondary)"></path>
            <path d="M30.6319029,85 L62.3680971,85 C63.5560936,85 64.3018396,85.1856512 64.9536914,85.5342654 C65.6055433,85.8828796 66.1171204,86.3944567 66.4657346,87.0463086 C66.8143488,87.6981604 67,88.4439064 67,89.6319029 L67,90.3680971 C67,91.5560936 66.8143488,92.3018396 66.4657346,92.9536914 C66.1171204,93.6055433 65.6055433,94.1171204 64.9536914,94.4657346 C64.3018396,94.8143488 63.5560936,95 62.3680971,95 L30.6319029,95 C29.4439064,95 28.6981604,94.8143488 28.0463086,94.4657346 C27.3944567,94.1171204 26.8828796,93.6055433 26.5342654,92.9536914 C26.1856512,92.3018396 26,91.5560936 26,90.3680971 L26,89.6319029 C26,88.4439064 26.1856512,87.6981604 26.5342654,87.0463086 C26.8828796,86.3944567 27.3944567,85.8828796 28.0463086,85.5342654 C28.6981604,85.1856512 29.4439064,85 30.6319029,85 Z" fill="var(--text-color-secondary)"></path>
            <path d="M110.12777,40 L188.87223,40 C190.655267,40 191.30184,40.1856512 191.953691,40.5342654 C192.605543,40.8828796 193.11712,41.3944567 193.465735,42.0463086 C193.814349,42.6981604 194,43.3447329 194,45.1277704 L194,48.8722296 C194,50.6552671 193.814349,51.3018396 193.465735,51.9536914 C193.11712,52.6055433 192.605543,53.1171204 191.953691,53.4657346 C191.30184,53.8143488 190.655267,54 188.87223,54 L110.12777,54 C108.344733,54 107.69816,53.8143488 107.046309,53.4657346 C106.394457,53.1171204 105.88288,52.6055433 105.534265,51.9536914 C105.185651,51.3018396 105,50.6552671 105,48.8722296 L105,45.1277704 C105,43.3447329 105.185651,42.6981604 105.534265,42.0463086 C105.88288,41.3944567 106.394457,40.8828796 107.046309,40.5342654 C107.69816,40.1856512 108.344733,40 110.12777,40 Z" fill="var(--text-color)"></path>
            <polygon fill="var(--text-color)" points="247.477943 23.6630915 2.74399584 23.6630915 2.74399584 16.4519392 5.4811275 9.76437592 12.2355266 4.0151813 27.5091494 2.36969392 44.907548 2.36969392 230.516198 2.36969392 238.280532 4.0151813 243.861982 8.42212168 247.477943 16.4519392"></polygon>
            <path d="M224.836974,2.00088629 C232.827465,2.03102479 235.824365,2.83005759 238.825259,4.43495343 C241.730826,5.98886768 244.011132,8.26917367 245.565047,11.1747407 C247.201411,14.2344761 248,17.290059 248,25.638852 L248,25.638852 L248,134.361148 C248,142.709941 247.201411,145.765524 245.565047,148.825259 C244.011132,151.730826 241.730826,154.011132 238.825259,155.565047 C235.765524,157.201411 232.709941,158 224.361148,158 L224.361148,158 L25.638852,158 C17.290059,158 14.2344761,157.201411 11.1747407,155.565047 C8.26917367,154.011132 5.98886768,151.730826 4.43495343,148.825259 C2.83145498,145.826978 2.0324545,142.833141 2.00095428,134.850609 L2.00095428,134.850609 L2.00088629,25.1630258 C2.03102479,17.1725351 2.83005759,14.175635 4.43495343,11.1747407 C5.98886768,8.26917367 8.26917367,5.98886768 11.1747407,4.43495343 C14.1730221,2.83145498 17.1668589,2.0324545 25.1493832,2.00095428 L25.1493832,2.00095428 Z" stroke="var(--text-color)" stroke-width="4"></path>
        </g>
    </g>
</svg>