<?xml version="1.0" encoding="UTF-8"?>
<svg width="250px" height="160px" viewBox="0 0 250 160" version="1.1" xmlns="http://www.w3.org/2000/svg" xmlns:xlink="http://www.w3.org/1999/xlink">
    <g stroke="none" stroke-width="1" fill="none" fill-rule="evenodd">
        <g>
            <path d="M181.631903,150 L222.368097,150 C223.556094,150 224.30184,150.185651 224.953691,150.534265 C225.605543,150.88288 226.11712,151.394457 226.465735,152.046309 C226.814349,152.69816 227,153.443906 227,154.631903 L227,155.368097 C227,156.556094 226.814349,157.30184 226.465735,157.953691 C226.11712,158.605543 225.605543,159.11712 224.953691,159.465735 C224.30184,159.814349 223.556094,160 222.368097,160 L181.631903,160 C180.443906,160 179.69816,159.814349 179.046309,159.465735 C178.394457,159.11712 177.88288,158.605543 177.534265,157.953691 C177.185651,157.30184 177,156.556094 177,155.368097 L177,154.631903 C177,153.443906 177.185651,152.69816 177.534265,152.046309 C177.88288,151.394457 178.394457,150.88288 179.046309,150.534265 C179.69816,150.185651 180.443906,150 181.631903,150 Z" fill="var(--text-color-secondary)"></path>
            <path d="M126.631903,150 L167.368097,150 C168.556094,150 169.30184,150.185651 169.953691,150.534265 C170.605543,150.88288 171.11712,151.394457 171.465735,152.046309 C171.814349,152.69816 172,153.443906 172,154.631903 L172,155.368097 C172,156.556094 171.814349,157.30184 171.465735,157.953691 C171.11712,158.605543 170.605543,159.11712 169.953691,159.465735 C169.30184,159.814349 168.556094,160 167.368097,160 L126.631903,160 C125.443906,160 124.69816,159.814349 124.046309,159.465735 C123.394457,159.11712 122.88288,158.605543 122.534265,157.953691 C122.185651,157.30184 122,156.556094 122,155.368097 L122,154.631903 C122,153.443906 122.185651,152.69816 122.534265,152.046309 C122.88288,151.394457 123.394457,150.88288 124.046309,150.534265 C124.69816,150.185651 125.443906,150 126.631903,150 Z" fill="var(--text-color-secondary)"></path>
            <path d="M27.6319029,150 L112.368097,150 C113.556094,150 114.30184,150.185651 114.953691,150.534265 C115.605543,150.88288 116.11712,151.394457 116.465735,152.046309 C116.814349,152.69816 117,153.443906 117,154.631903 L117,155.368097 C117,156.556094 116.814349,157.30184 116.465735,157.953691 C116.11712,158.605543 115.605543,159.11712 114.953691,159.465735 C114.30184,159.814349 113.556094,160 112.368097,160 L27.6319029,160 C26.4439064,160 25.6981604,159.814349 25.0463086,159.465735 C24.3944567,159.11712 23.8828796,158.605543 23.5342654,157.953691 C23.1856512,157.30184 23,156.556094 23,155.368097 L23,154.631903 C23,153.443906 23.1856512,152.69816 23.5342654,152.046309 C23.8828796,151.394457 24.3944567,150.88288 25.0463086,150.534265 C25.6981604,150.185651 26.4439064,150 27.6319029,150 Z" fill="var(--text-color-secondary)"></path>
            <path d="M182.12777,95 L221.87223,95 C223.655267,95 224.30184,95.1856512 224.953691,95.5342654 C225.605543,95.8828796 226.11712,96.3944567 226.465735,97.0463086 C226.814349,97.6981604 227,98.3447329 227,100.12777 L227,139.87223 C227,141.655267 226.814349,142.30184 226.465735,142.953691 C226.11712,143.605543 225.605543,144.11712 224.953691,144.465735 C224.30184,144.814349 223.655267,145 221.87223,145 L182.12777,145 C180.344733,145 179.69816,144.814349 179.046309,144.465735 C178.394457,144.11712 177.88288,143.605543 177.534265,142.953691 C177.185651,142.30184 177,141.655267 177,139.87223 L177,100.12777 C177,98.3447329 177.185651,97.6981604 177.534265,97.0463086 C177.88288,96.3944567 178.394457,95.8828796 179.046309,95.5342654 C179.69816,95.1856512 180.344733,95 182.12777,95 Z" fill="var(--text-color-secondary)"></path>
            <path d="M83.1277704,95 L166.87223,95 C168.655267,95 169.30184,95.1856512 169.953691,95.5342654 C170.605543,95.8828796 171.11712,96.3944567 171.465735,97.0463086 C171.814349,97.6981604 172,98.3447329 172,100.12777 L172,139.87223 C172,141.655267 171.814349,142.30184 171.465735,142.953691 C171.11712,143.605543 170.605543,144.11712 169.953691,144.465735 C169.30184,144.814349 168.655267,145 166.87223,145 L83.1277704,145 C81.3447329,145 80.6981604,144.814349 80.0463086,144.465735 C79.3944567,144.11712 78.8828796,143.605543 78.5342654,142.953691 C78.1856512,142.30184 78,141.655267 78,139.87223 L78,100.12777 C78,98.3447329 78.1856512,97.6981604 78.5342654,97.0463086 C78.8828796,96.3944567 79.3944567,95.8828796 80.0463086,95.5342654 C80.6981604,95.1856512 81.3447329,95 83.1277704,95 Z" fill="var(--text-color-secondary)"></path>
            <path d="M28.1277704,95 L67.8722296,95 C69.6552671,95 70.3018396,95.1856512 70.9536914,95.5342654 C71.6055433,95.8828796 72.1171204,96.3944567 72.4657346,97.0463086 C72.8143488,97.6981604 73,98.3447329 73,100.12777 L73,139.87223 C73,141.655267 72.8143488,142.30184 72.4657346,142.953691 C72.1171204,143.605543 71.6055433,144.11712 70.9536914,144.465735 C70.3018396,144.814349 69.6552671,145 67.8722296,145 L28.1277704,145 C26.3447329,145 25.6981604,144.814349 25.0463086,144.465735 C24.3944567,144.11712 23.8828796,143.605543 23.5342654,142.953691 C23.1856512,142.30184 23,141.655267 23,139.87223 L23,100.12777 C23,98.3447329 23.1856512,97.6981604 23.5342654,97.0463086 C23.8828796,96.3944567 24.3944567,95.8828796 25.0463086,95.5342654 C25.6981604,95.1856512 26.3447329,95 28.1277704,95 Z" fill="var(--text-color-secondary)"></path>
            <path d="M138.12777,40 L221.87223,40 C223.655267,40 224.30184,40.1856512 224.953691,40.5342654 C225.605543,40.8828796 226.11712,41.3944567 226.465735,42.0463086 C226.814349,42.6981604 227,43.3447329 227,45.1277704 L227,84.8722296 C227,86.6552671 226.814349,87.3018396 226.465735,87.9536914 C226.11712,88.6055433 225.605543,89.1171204 224.953691,89.4657346 C224.30184,89.8143488 223.655267,90 221.87223,90 L138.12777,90 C136.344733,90 135.69816,89.8143488 135.046309,89.4657346 C134.394457,89.1171204 133.88288,88.6055433 133.534265,87.9536914 C133.185651,87.3018396 133,86.6552671 133,84.8722296 L133,45.1277704 C133,43.3447329 133.185651,42.6981604 133.534265,42.0463086 C133.88288,41.3944567 134.394457,40.8828796 135.046309,40.5342654 C135.69816,40.1856512 136.344733,40 138.12777,40 Z" fill="var(--text-color-secondary)"></path>
            <path d="M83.1277704,40 L122.87223,40 C124.655267,40 125.30184,40.1856512 125.953691,40.5342654 C126.605543,40.8828796 127.11712,41.3944567 127.465735,42.0463086 C127.814349,42.6981604 128,43.3447329 128,45.1277704 L128,84.8722296 C128,86.6552671 127.814349,87.3018396 127.465735,87.9536914 C127.11712,88.6055433 126.605543,89.1171204 125.953691,89.4657346 C125.30184,89.8143488 124.655267,90 122.87223,90 L83.1277704,90 C81.3447329,90 80.6981604,89.8143488 80.0463086,89.4657346 C79.3944567,89.1171204 78.8828796,88.6055433 78.5342654,87.9536914 C78.1856512,87.3018396 78,86.6552671 78,84.8722296 L78,45.1277704 C78,43.3447329 78.1856512,42.6981604 78.5342654,42.0463086 C78.8828796,41.3944567 79.3944567,40.8828796 80.0463086,40.5342654 C80.6981604,40.1856512 81.3447329,40 83.1277704,40 Z" fill="var(--text-color-secondary)"></path>
            <path d="M28.1277704,40 L67.8722296,40 C69.6552671,40 70.3018396,40.1856512 70.9536914,40.5342654 C71.6055433,40.8828796 72.1171204,41.3944567 72.4657346,42.0463086 C72.8143488,42.6981604 73,43.3447329 73,45.1277704 L73,84.8722296 C73,86.6552671 72.8143488,87.3018396 72.4657346,87.9536914 C72.1171204,88.6055433 71.6055433,89.1171204 70.9536914,89.4657346 C70.3018396,89.8143488 69.6552671,90 67.8722296,90 L28.1277704,90 C26.3447329,90 25.6981604,89.8143488 25.0463086,89.4657346 C24.3944567,89.1171204 23.8828796,88.6055433 23.5342654,87.9536914 C23.1856512,87.3018396 23,86.6552671 23,84.8722296 L23,45.1277704 C23,43.3447329 23.1856512,42.6981604 23.5342654,42.0463086 C23.8828796,41.3944567 24.3944567,40.8828796 25.0463086,40.5342654 C25.6981604,40.1856512 26.3447329,40 28.1277704,40 Z" fill="var(--text-color-secondary)"></path>
            <path d="M28.1277704,16 L106.87223,16 C108.655267,16 109.30184,16.1856512 109.953691,16.5342654 C110.605543,16.8828796 111.11712,17.3944567 111.465735,18.0463086 C111.814349,18.6981604 112,19.3447329 112,21.1277704 L112,24.8722296 C112,26.6552671 111.814349,27.3018396 111.465735,27.9536914 C111.11712,28.6055433 110.605543,29.1171204 109.953691,29.4657346 C109.30184,29.8143488 108.655267,30 106.87223,30 L28.1277704,30 C26.3447329,30 25.6981604,29.8143488 25.0463086,29.4657346 C24.3944567,29.1171204 23.8828796,28.6055433 23.5342654,27.9536914 C23.1856512,27.3018396 23,26.6552671 23,24.8722296 L23,21.1277704 C23,19.3447329 23.1856512,18.6981604 23.5342654,18.0463086 C23.8828796,17.3944567 24.3944567,16.8828796 25.0463086,16.5342654 C25.6981604,16.1856512 26.3447329,16 28.1277704,16 Z" fill="var(--text-color)"></path>
            <path d="M224.836974,2.00088629 C232.827465,2.03102479 235.824365,2.83005759 238.825259,4.43495343 C241.730826,5.98886768 244.011132,8.26917367 245.565047,11.1747407 C247.201411,14.2344761 248,17.290059 248,25.638852 L248,25.638852 L248,134.361148 C248,142.709941 247.201411,145.765524 245.565047,148.825259 C244.011132,151.730826 241.730826,154.011132 238.825259,155.565047 C235.765524,157.201411 232.709941,158 224.361148,158 L224.361148,158 L25.638852,158 C17.290059,158 14.2344761,157.201411 11.1747407,155.565047 C8.26917367,154.011132 5.98886768,151.730826 4.43495343,148.825259 C2.83145498,145.826978 2.0324545,142.833141 2.00095428,134.850609 L2.00095428,134.850609 L2.00088629,25.1630258 C2.03102479,17.1725351 2.83005759,14.175635 4.43495343,11.1747407 C5.98886768,8.26917367 8.26917367,5.98886768 11.1747407,4.43495343 C14.1730221,2.83145498 17.1668589,2.0324545 25.1493832,2.00095428 L25.1493832,2.00095428 Z" stroke="var(--text-color)" stroke-width="4"></path>
        </g>
    </g>
</svg>