<?xml version="1.0" encoding="UTF-8"?>
<svg width="480px" height="432px" viewBox="0 0 467 432" version="1.1" xmlns="http://www.w3.org/2000/svg" xmlns:xlink="http://www.w3.org/1999/xlink">
    <title>ui-samples</title>
    <g id="Page-1" stroke="none" stroke-width="1" fill="none" fill-rule="evenodd" stroke-linejoin="round">
        <g id="ui-samples" transform="translate(2.000000, 0.000000)" stroke="currentColor" stroke-width="32">
            <path d="M269.912539,272 L34.0874613,272 C23.0417663,272 14.0874613,263.045695 14.0874613,252 C14.0874613,248.584219 14.9623005,245.225357 16.6285916,242.243573 L134.54113,31.2421878 C139.929456,21.5999203 152.11416,18.1514194 161.756427,23.5397453 C164.987105,25.3451244 167.653491,28.0115094 169.45887,31.2421878 L287.371408,242.243573 C292.759734,251.88584 289.311233,264.070544 279.668966,269.45887 C276.687182,271.125161 273.32832,272 269.912539,272 Z M233.32,146.51 C289.978733,114.59048 360.999844,124.606719 406.620896,170.950946 C452.241948,217.295174 461.140058,288.46502 428.33346,344.614774 C395.526862,400.764529 329.157965,427.958146 266.384581,410.970793 C203.611198,393.983441 160.013321,337.031282 160,272" id="Shape"></path>
        </g>
    </g>
</svg>