<?xml version="1.0" encoding="UTF-8"?>
<svg width="479px" height="439px" viewBox="0 0 479 439" version="1.1" xmlns="http://www.w3.org/2000/svg" xmlns:xlink="http://www.w3.org/1999/xlink">
    <defs>
        <radialGradient cx="25.0582896%" cy="22.051118%" fx="25.0582896%" fy="22.051118%" r="106.149525%" gradientTransform="translate(0.250583,0.220511),scale(0.910289,1.000000),rotate(42.225173),translate(-0.250583,-0.220511)" id="radialGradient-1">
            <stop stop-color="#F2709C" offset="0%"></stop>
            <stop stop-color="#8058FF" offset="65.5405858%"></stop>
            <stop stop-color="#FF9472" offset="100%"></stop>
        </radialGradient>
    </defs>
    <g id="Page-1" stroke="none" stroke-width="1" fill="none" fill-rule="evenodd">
        <path d="M279.481839,274.571734 L37.0920373,274.571734 C25.7388604,274.571734 16.5352921,265.368166 16.5352921,254.014989 C16.5352921,250.504122 17.4344845,247.051759 19.1471605,243.98697 L140.342061,27.1118847 C145.880383,17.2012029 158.404276,13.6567052 168.314957,19.1950273 C171.635568,21.0506632 174.376179,23.791273 176.231815,27.1118847 L297.426715,243.98697 C302.965037,253.897651 299.420539,266.421544 289.509858,271.959866 C286.445069,273.672542 282.992706,274.571734 279.481839,274.571734 Z M241.870664,145.588437 C300.106621,112.780365 373.104765,123.075429 419.995782,170.709752 C466.886799,218.344076 476.032608,291.495096 442.312764,349.207905 C408.59292,406.920715 340.376495,434.871328 275.855672,417.411093 C211.33485,399.95086 166.523328,341.413309 166.509636,274.571734" id="Shape" stroke="url(#radialGradient-1)" stroke-width="32"></path>
    </g>
</svg>